# xmcd
#
# Track frame offsets: 
#        150
#        17672
#        19740
#        49982
#        65792
#        82770
#        92535
#        104030
#        109110
#        124072
#        143877
#        150670
#        155582
#        160225
#        164555
#        181820
#        194265
#        215497
#        225000
#        237012
#        251495
#        259025
#        269052
#        281085
#        295767
#        311160
#        321685
#        334990
#
# Disc length: 4666 seconds
#
# Revision: 2
# Processed by: cddbd v1.5.2PL0 Copyright (c) Steve Scherf et al.
# Submitted via: ExactAudioCopyFreeDBPlugin 1.0
#
DISCID=9a12381c
DTITLE=Various Artist - The Land Where The Blues Began (The Alan Loma
DTITLE=x Collection)
DYEAR=2002
DGENRE=Blues
TTITLE0=Willie "61" Blackwell and William Brown - Four O'Clock Flower Bl
TTITLE0=ues
TTITLE1=Willie "61" Blackwell - Interview with Willie "61" Blackwell
TTITLE2=Son House - Walking Blues
TTITLE3=Turner Junior Johnson - When I Lay My Burden Down
TTITLE4=Charles Haffer, Jr. - Strange Things Happening in the Land
TTITLE5=J.H. Terrell - Missionary Sermon by J.H. Terrell
TTITLE6=Reverend C.H. Savage - Rock, Daniel
TTITLE7=Florence Stamp and Group of Girls - Satisfied
TTITLE8=Congregation Of The Church Of God, Clarksdale, MS - I'm A Sold
TTITLE8=ier in the Army of The Lord
TTITLE9=Reverend Ribbons - Sermon (Hell is a Place)
TTITLE10=M.C. Orr - The Preacher and The Bear
TTITLE11=Joe Shores - Mississippi Sounding Calls by Joe Shores
TTITLE12=John Cameron - Roustabout Song
TTITLE13=Will Stark - The Toast to Bud Doggett
TTITLE14=Sampson Pittman and Calvin Frazier - I Been Down in the Circle 
TTITLE14=Before
TTITLE15=Dobie Red - Rosie
TTITLE16="22", Little Red, Tangle Eye and Hard Hair - Early in the Morni
TTITLE16=ng
TTITLE17=D.W. "Bama" Stuart - I'm Goin' Home
TTITLE18=Ernest Williams - Go Down, Old Hannah
TTITLE19=Sid Hemphill, Lucius Smith, Will Head and Alec Askew - John Hen
TTITLE19=ry
TTITLE20=Alec Askew - Emmaline, Take Your Time
TTITLE21=Ed Young, Lonnie Young and G.D. Young - Jim and John
TTITLE22=Fred McDowell - Shake 'Em On Down
TTITLE23=David "Honeyboy" Edwards - Wind Howling Blues
TTITLE24=Muddy Waters - Country Blues
TTITLE25=Big Bill Broonzy - Black, Brown and White
TTITLE26=Memphis Slim, Big Bill Broonzy and Sonny Boy Williamson - Life 
TTITLE26=Is Like That
TTITLE27=Forrest City Joe - She Lived Her Life Too Fast
EXTD=YEAR: 2002
EXTT0=
EXTT1=
EXTT2=
EXTT3=
EXTT4=
EXTT5=
EXTT6=
EXTT7=
EXTT8=
EXTT9=
EXTT10=
EXTT11=
EXTT12=
EXTT13=
EXTT14=
EXTT15=
EXTT16=
EXTT17=
EXTT18=
EXTT19=
EXTT20=
EXTT21=
EXTT22=
EXTT23=
EXTT24=
EXTT25=
EXTT26=
EXTT27=
PLAYORDER=
